<?xml version="1.0" encoding="utf-8"?>
<!-- Generator: Adobe Illustrator 16.0.0, SVG Export Plug-In . SVG Version: 6.00 Build 0)  -->
<!DOCTYPE svg PUBLIC "-//W3C//DTD SVG 1.1//EN" "http://www.w3.org/Graphics/SVG/1.1/DTD/svg11.dtd">
<svg version="1.1" id="Layer_1" xmlns="http://www.w3.org/2000/svg" xmlns:xlink="http://www.w3.org/1999/xlink" x="0px" y="0px"
	 width="596px" height="595.281px" viewBox="0 0 596 595.281" enable-background="new 0 0 596 595.281" xml:space="preserve">
<path d="M298,3.141c162.647,0,294.5,131.852,294.5,294.5c0,162.647-131.853,294.5-294.5,294.5c-162.648,0-294.5-131.853-294.5-294.5
	C3.5,134.993,135.352,3.141,298,3.141z M486.828,180.491c-13.891,6.164-28.811,10.33-44.498,12.204
	c16.01-9.587,28.274-24.78,34.065-42.86c-14.954,8.88-31.536,15.328-49.208,18.8c-14.125-15.055-34.266-24.455-56.55-24.455
	c-42.774,0-77.462,34.675-77.462,77.473c0,6.064,0.682,11.98,1.996,17.66c-64.391-3.236-121.474-34.08-159.684-80.945
	c-6.672,11.447-10.49,24.755-10.49,38.954c0,26.875,13.678,50.587,34.463,64.477c-12.7-0.395-24.643-3.88-35.097-9.685v0.98
	c0,37.54,26.7,68.84,62.145,75.96c-6.511,1.785-13.344,2.716-20.413,2.716c-4.998,0-9.847-0.47-14.584-1.363
	c9.86,30.771,38.47,53.166,72.363,53.8c-26.517,20.784-59.926,33.174-96.213,33.174c-6.25,0-12.427-0.372-18.49-1.104
	c34.29,21.988,75.005,34.824,118.758,34.824c142.496,0,220.427-118.052,220.427-220.428c0-3.36-0.073-6.697-0.235-10.02
	c15.18-10.977,28.325-24.618,38.707-40.158V180.491z"/>
</svg>
